<svg width="36" height="36" viewBox="0 0 36 36" fill="none" xmlns="http://www.w3.org/2000/svg">
<path d="M32.5601 18.9799V17.0072L35.1027 14.8411C35.5714 14.4388 35.879 13.8883 35.9711 13.2866C36.0632 12.6849 35.9338 12.071 35.6059 11.5532L32.4807 6.39572C32.2484 6.00409 31.9145 5.67881 31.5124 5.4525C31.1103 5.22619 30.6541 5.10682 30.1897 5.10636C29.9018 5.10421 29.6156 5.14776 29.3421 5.23529L26.1241 6.29257C25.5686 5.93311 24.989 5.61005 24.3894 5.32555L23.714 2.07635C23.5929 1.48273 23.2612 0.949498 22.777 0.569989C22.2928 0.19048 21.6869 -0.0111223 21.0654 0.000473752H14.8678C14.2463 -0.0111223 13.6405 0.19048 13.1563 0.569989C12.6721 0.949498 12.3404 1.48273 12.2193 2.07635L11.5439 5.32555C10.94 5.60998 10.356 5.93303 9.79587 6.29257L6.6441 5.18372C6.36772 5.11361 6.08151 5.08748 5.79656 5.10636C5.33211 5.10682 4.87594 5.22619 4.47383 5.4525C4.07172 5.67881 3.7378 6.00409 3.50557 6.39572L0.380287 11.5532C0.0711844 12.0702 -0.0436768 12.6758 0.0553756 13.2662C0.154428 13.8566 0.461231 14.3951 0.923239 14.7895L3.42611 17.0201V18.9928L0.923239 21.1589C0.448181 21.5561 0.132986 22.1042 0.0335905 22.7061C-0.0658052 23.308 0.0570264 23.9247 0.380287 24.4468L3.50557 29.6043C3.7378 29.9959 4.07172 30.3212 4.47383 30.5475C4.87594 30.7738 5.33211 30.8932 5.79656 30.8936C6.08439 30.8958 6.37066 30.8522 6.6441 30.7647L9.86208 29.7074C10.4177 30.0669 10.9972 30.3899 11.5969 30.6745L12.2723 33.9236C12.3934 34.5173 12.725 35.0505 13.2092 35.43C13.6934 35.8095 14.2993 36.0111 14.9208 35.9995H21.1714C21.7929 36.0111 22.3987 35.8095 22.8829 35.43C23.3671 35.0505 23.6988 34.5173 23.8199 33.9236L24.4953 30.6745C25.0993 30.39 25.6832 30.067 26.2433 29.7074L29.4481 30.7647C29.7215 30.8522 30.0078 30.8958 30.2956 30.8936C30.7601 30.8932 31.2162 30.7738 31.6183 30.5475C32.0205 30.3212 32.3544 29.9959 32.5866 29.6043L35.6059 24.4468C35.915 23.9298 36.0299 23.3242 35.9309 22.7338C35.8318 22.1434 35.525 21.6049 35.063 21.2105L32.5601 18.9799ZM30.1897 28.3149L25.6474 26.8193C24.5841 27.6962 23.3689 28.3816 22.0586 28.8436L21.1184 33.4724H14.8678L13.9276 28.8951C12.6277 28.4201 11.4191 27.7358 10.3521 26.8708L5.79656 28.3149L2.67128 23.1575L6.2733 20.063C6.02844 18.7283 6.02844 17.3619 6.2733 16.0273L2.67128 12.8425L5.79656 7.68509L10.3388 9.18075C11.4021 8.30384 12.6174 7.61837 13.9276 7.15645L14.8678 2.52763H21.1184L22.0586 7.10487C23.3585 7.5799 24.5672 8.26419 25.6342 9.12917L30.1897 7.68509L33.315 12.8425L29.7129 15.937C29.9578 17.2717 29.9578 18.6381 29.7129 19.9727L33.315 23.1575L30.1897 28.3149Z" fill="white" fill-opacity="0.5"/>
<path d="M17.9931 25.7362C16.4216 25.7362 14.8854 25.2825 13.5788 24.4324C12.2721 23.5824 11.2537 22.3741 10.6523 20.9605C10.0509 19.5469 9.89358 17.9914 10.2002 16.4908C10.5067 14.9901 11.2635 13.6116 12.3747 12.5297C13.4859 11.4478 14.9017 10.711 16.443 10.4125C17.9843 10.114 19.5819 10.2672 21.0338 10.8527C22.4857 11.4382 23.7266 12.4298 24.5997 13.702C25.4728 14.9742 25.9388 16.4699 25.9388 18C25.9494 19.0188 25.7511 20.0294 25.3556 20.9727C24.96 21.916 24.3752 22.7729 23.6352 23.4934C22.8953 24.2138 22.0151 24.7833 21.0463 25.1684C20.0775 25.5535 19.0395 25.7465 17.9931 25.7362ZM17.9931 12.8426C17.293 12.8267 16.5969 12.9492 15.9469 13.2028C15.2968 13.4564 14.7064 13.8357 14.2112 14.3178C13.716 14.7999 13.3265 15.3748 13.066 16.0077C12.8056 16.6406 12.6797 17.3184 12.696 18C12.6797 18.6816 12.8056 19.3594 13.066 19.9923C13.3265 20.6252 13.716 21.2001 14.2112 21.6822C14.7064 22.1644 15.2968 22.5437 15.9469 22.7972C16.5969 23.0508 17.293 23.1733 17.9931 23.1575C18.6932 23.1733 19.3893 23.0508 20.0394 22.7972C20.6894 22.5437 21.2799 22.1644 21.775 21.6822C22.2702 21.2001 22.6598 20.6252 22.9202 19.9923C23.1807 19.3594 23.3065 18.6816 23.2902 18C23.3065 17.3184 23.1807 16.6406 22.9202 16.0077C22.6598 15.3748 22.2702 14.7999 21.775 14.3178C21.2799 13.8357 20.6894 13.4564 20.0394 13.2028C19.3893 12.9492 18.6932 12.8267 17.9931 12.8426Z" fill="white" fill-opacity="0.5"/>
</svg>
