<svg width="36" height="30" viewBox="0 0 36 30" fill="none" xmlns="http://www.w3.org/2000/svg">
<path d="M24.7503 9.31262C26.9165 12.2019 26.9165 17.7985 24.7503 20.6878M29.6254 3.62504C36.106 9.81313 36.145 20.2279 29.6254 26.3753M2 19.8086V10.1901C2 9.25737 2.72801 8.50011 3.62502 8.50011H9.45235C9.66739 8.49934 9.88006 8.45504 10.0775 8.36985C10.275 8.28467 10.4531 8.16038 10.6012 8.00448L15.4763 2.4989C16.5001 1.43289 18.2502 2.18852 18.2502 3.69492V26.3055C18.2502 27.8232 16.4789 28.5724 15.4617 27.4852L10.6029 22.0105C10.4543 21.8502 10.2744 21.7221 10.0742 21.6344C9.87402 21.5466 9.65792 21.5009 9.43935 21.5003H3.62502C2.72801 21.5003 2 20.743 2 19.8086Z" stroke="#9D9D9D" stroke-width="3" stroke-linecap="round" stroke-linejoin="round"/>
</svg>
